<svg xmlns="http://www.w3.org/2000/svg" width="153.576" height="35.424" viewBox="0 0 153.576 35.424">
  <path id="パス_1" data-name="パス 1" d="M15.624-5.616c-4,0-4.392,0-4.392-2.52V-14.4H14.58v-5.688H11.232v-6.3H4.1v6.3H.864V-14.4h2.88v7.92C3.744-1.044,6.588.5,14.4.5Zm23.112-.108a8.864,8.864,0,0,1-.936.072c-1.116,0-1.872-.324-1.872-1.26v-6.732c0-4.5-2.7-6.948-8.928-6.948-4.176,0-6.912,1.116-9.036,3.24l2.844,5.22a8.913,8.913,0,0,1,5.508-2.736c1.548,0,1.836.036,1.836.792,0,.576-1.188,1.152-3.672,1.656-5.148,1.08-7.02,3.42-7.02,7.2C17.46-1.728,19.8.5,23.832.5c2.7,0,5.184-.5,6.516-2.088C30.888-.324,33.012.5,35.244.5A9.365,9.365,0,0,0,37.26.252ZM28.332-6.84a2.565,2.565,0,0,1-2.268,1.8c-.864,0-1.4-.324-1.4-1.044a2.031,2.031,0,0,1,1.692-2.124,5.375,5.375,0,0,0,1.98-.9ZM70.92,0V-13.9c0-3.852-2.592-6.7-6.048-6.7-2.88,0-5.292.9-6.192,2.844A5.569,5.569,0,0,0,53.6-20.592c-3.168,0-5,1.008-5.868,2.628v-2.124H40.968V0h7.488V-12.24c.288-1.3.792-2.3,2.124-2.3,1.3,0,1.656.828,1.656,2.52V0h7.416V-12.24c.144-1.224.612-2.3,2.088-2.3,1.26,0,1.692.792,1.692,2.52V0ZM95.8-5.724a8.864,8.864,0,0,1-.936.072c-1.116,0-1.872-.324-1.872-1.26v-6.732c0-4.5-2.7-6.948-8.928-6.948-4.176,0-6.912,1.116-9.036,3.24l2.844,5.22a8.913,8.913,0,0,1,5.508-2.736c1.548,0,1.836.036,1.836.792,0,.576-1.188,1.152-3.672,1.656-5.148,1.08-7.02,3.42-7.02,7.2C74.52-1.728,76.86.5,80.892.5c2.7,0,5.184-.5,6.516-2.088C87.948-.324,90.072.5,92.3.5A9.365,9.365,0,0,0,94.32.252ZM85.392-6.84a2.565,2.565,0,0,1-2.268,1.8c-.864,0-1.4-.324-1.4-1.044a2.031,2.031,0,0,1,1.692-2.124,5.375,5.375,0,0,0,1.98-.9ZM105.768,0V-28.08H98.136V0Zm25.488-10.044c0-6.372-4.068-10.548-10.872-10.548-6.768,0-10.908,4.176-10.908,10.548S113.616.5,120.384.5C127.188.5,131.256-3.672,131.256-10.044ZM120.384-5.328c-2.16,0-3.312-1.836-3.312-4.716,0-2.844,1.152-4.644,3.312-4.644s3.276,1.8,3.276,4.644C123.66-7.164,122.544-5.328,120.384-5.328Zm26.892,3.744c0,1.872-.612,2.916-5,2.916A44.99,44.99,0,0,1,134.928.5l1.764,6.516c1.008.108,3.528.324,5.832.324,8.964,0,11.916-2.772,11.916-8.532v-18.9h-5.4l-1.008,1.62c-.828-1.4-2.736-2.124-5.652-2.124-4.752,0-8.6,3.672-8.6,9.936,0,6.192,3.816,9.468,8.928,9.468A9.448,9.448,0,0,0,147.276-2.2Zm-.036-7.524a2.714,2.714,0,0,1-2.916,2.736c-2.016,0-3.2-1.548-3.2-4.248,0-2.736,1.188-4.1,3.132-4.1a3.037,3.037,0,0,1,2.988,2.052Z" transform="translate(-0.864 28.08)" fill="#3a3a3a"/>
</svg>
